<svg id="visual" viewBox="0 0 960 540" width="960" height="540" xmlns="http://www.w3.org/2000/svg" xmlns:xlink="http://www.w3.org/1999/xlink" version="1.1"><rect x="0" y="0" width="960" height="540" fill="#000000"></rect><g fill="none" stroke="#a93fe2" stroke-width="4"><path d="M0 -122.7L27.5 -37.9L116.7 -37.9L44.6 14.5L72.1 99.3L0 46.9L-72.1 99.3L-44.6 14.5L-116.7 -37.9L-27.5 -37.9Z" transform="translate(753 489)"></path><path d="M0 -115.1L25.9 -35.6L109.5 -35.6L41.8 13.6L67.7 93.2L0 44L-67.7 93.2L-41.8 13.6L-109.5 -35.6L-25.9 -35.6Z" transform="translate(759 109)"></path><path d="M0 -114.2L25.6 -35.3L108.6 -35.3L41.5 13.5L67.1 92.4L0 43.6L-67.1 92.4L-41.5 13.5L-108.6 -35.3L-25.6 -35.3Z" transform="translate(141 230)"></path></g></svg>